HIERARCHY
ROOT Hips
{
	OFFSET -0.179506 -22.333345 2.821913
	CHANNELS 6 Xposition Yposition Zposition Zrotation Yrotation Xrotation 
	JOINT LeftUpLeg
	{
		OFFSET 6.951974 -9.140623 -0.681533
		CHANNELS 3 Zrotation Yrotation Xrotation
		JOINT LeftLeg
		{
			OFFSET 3.427654 -37.519855 -0.449580
			CHANNELS 3 Zrotation Yrotation Xrotation
			JOINT LeftFoot
			{
				OFFSET -1.359570 -39.796059 -4.369333
				CHANNELS 3 Zrotation Yrotation Xrotation
				JOINT LeftToe
				{
					OFFSET 2.635814 -5.579078 11.928840
					CHANNELS 3 Zrotation Yrotation Xrotation
					End Site
					{
						OFFSET 0.000000 0.000000 0.000000
					}
				}
			}
		}
	}
	JOINT RightUpLeg
	{
		OFFSET -6.767048 -9.052170 -0.431982
		CHANNELS 3 Zrotation Yrotation Xrotation
		JOINT RightLeg
		{
			OFFSET -3.829005 -38.256897 -0.885003
			CHANNELS 3 Zrotation Yrotation Xrotation
			JOINT RightFoot
			{
				OFFSET 1.577377 -39.841461 -4.231180
				CHANNELS 3 Zrotation Yrotation Xrotation
				JOINT RightToe
				{
					OFFSET -2.537174 -4.814398 12.334795
					CHANNELS 3 Zrotation Yrotation Xrotation
					End Site
					{
						OFFSET 0.000000 0.000000 0.000000
					}
				}
			}
		}
	}
	JOINT Spine
	{
		OFFSET -0.253288 10.896323 -2.669631
		CHANNELS 3 Zrotation Yrotation Xrotation
		JOINT Spine1
		{
			OFFSET 0.548704 13.518043 0.109247
			CHANNELS 3 Zrotation Yrotation Xrotation
			JOINT Spine2
			{
				OFFSET 0.145701 5.292222 2.542457
				CHANNELS 3 Zrotation Yrotation Xrotation
				JOINT Neck
				{
					OFFSET -0.277840 21.387037 -4.285703
					CHANNELS 3 Zrotation Yrotation Xrotation
					JOINT Head
					{
						OFFSET 0.515184 6.496960 5.134897
						CHANNELS 3 Zrotation Yrotation Xrotation
						End Site
						{
							OFFSET 0.000000 0.000000 0.000000
						}
					}
				}
				JOINT LeftShoulder
				{
					OFFSET 7.884473 12.174932 -3.408961
					CHANNELS 3 Zrotation Yrotation Xrotation
					JOINT LeftArm
					{
						OFFSET 9.097692 3.046888 -0.886815
						CHANNELS 3 Zrotation Yrotation Xrotation
						JOINT LeftForeArm
						{
							OFFSET 25.961220 -1.277207 -2.745643
							CHANNELS 3 Zrotation Yrotation Xrotation
							JOINT LeftHand
							{
								OFFSET 24.923361 0.898606 -0.117091
								CHANNELS 3 Zrotation Yrotation Xrotation
								End Site
								{
									OFFSET 0.000000 0.000000 0.000000
								}
							}
						}
					}
				}
				JOINT RightShoulder
				{
					OFFSET -8.175920 11.883285 -3.861528
					CHANNELS 3 Zrotation Yrotation Xrotation
					JOINT RightArm
					{
						OFFSET -9.601238 3.255117 -0.914307
						CHANNELS 3 Zrotation Yrotation Xrotation
						JOINT RightForeArm
						{
							OFFSET -25.374195 -1.332924 -2.140099
							CHANNELS 3 Zrotation Yrotation Xrotation
							JOINT RightHand
							{
								OFFSET -25.529810 0.777228 -0.555919
								CHANNELS 3 Zrotation Yrotation Xrotation
								End Site
								{
									OFFSET 0.000000 0.000000 0.000000
								}
							}
						}
					}
				}
			}
		}
	}
}
MOTION
Frames: 6
Frame Time: 0.033333
6.317815 -87.365532 93.926804 -178.661759 1.941407 86.234036 5.068782 2.397009 5.384131 -1.041816 -4.873809 2.611350 1.554475 9.193715 -12.878068 nan nan nan -2.977465 -1.512753 4.884453 1.907644 0.687594 0.612166 2.354114 -3.760036 -8.512863 nan nan nan -1.121798 3.029879 8.464040 2.776530 -3.571183 9.123006 2.523940 -0.955338 -5.429293 -3.655350 2.171454 -2.209345 2.699192 -1.573632 -7.349919 -27.668647 -6.536906 2.953332 -59.943684 -7.703277 14.470246 7.186299 -21.720978 3.689611 -6.990651 -7.616133 1.889522 29.046166 10.039708 3.843814 53.453599 5.461708 11.755488 -11.159522 19.442655 -7.329984 11.995601 10.651572 -4.629380 
6.315565 -87.412682 93.886780 -178.687522 1.950580 86.401474 5.129885 2.299878 5.137686 -1.179772 -4.990870 2.716716 1.529766 9.215392 -12.894448 nan nan nan -3.002166 -1.517897 4.570059 2.000793 0.684221 0.794623 2.463195 -3.873307 -8.569630 nan nan nan -1.031513 2.920668 8.366359 2.670057 -3.490638 8.763074 2.611139 -0.984214 -5.088056 -3.443378 2.539829 -2.673585 2.470216 -0.929193 -7.029881 -27.563739 -6.516942 3.075092 -60.057844 -7.727528 14.331017 7.075450 -21.878708 3.899059 -6.513500 -7.634872 1.304458 28.862965 9.998514 4.008117 53.641717 5.691077 11.795761 -11.115888 19.487648 -7.305657 11.589082 10.569910 -5.216293 
6.328190 -87.431290 93.857391 -178.685702 1.948200 86.566626 5.172191 2.214833 4.944207 -1.252738 -5.039740 2.738333 1.505407 9.225271 -12.861602 nan nan nan -3.016452 -1.500603 4.377064 2.026289 0.692639 0.830098 2.583655 -3.933360 -8.480096 nan nan nan -1.002089 2.866349 8.199174 2.581172 -3.447896 8.589276 2.627429 -1.018643 -4.833532 -3.393635 2.495982 -2.807660 2.395247 -0.914662 -6.923946 -27.303907 -6.431598 3.091956 -60.342946 -7.792179 14.305693 7.145292 -21.992291 4.071657 -6.533700 -7.731257 1.073388 28.637425 9.970225 4.081828 53.868576 5.770373 11.867837 -11.111171 19.644983 -7.095898 11.560636 10.588309 -5.495851 
6.352930 -87.167374 93.921555 -178.067511 2.067261 86.185183 5.399019 1.750947 5.652678 -1.252006 -5.146292 2.458818 1.158062 9.115570 -13.090016 nan nan nan -2.861223 -1.464805 5.724604 2.055154 0.439506 -0.262552 2.602634 -4.110712 -8.141202 nan nan nan -1.072270 2.675364 7.707145 2.535343 -3.560282 9.338970 2.847494 -1.317158 -4.523292 -3.508841 2.695125 -2.838834 2.934700 -1.934698 -6.791840 -26.937258 -6.039242 3.475755 -60.744676 -8.200092 13.935955 8.589834 -21.036066 5.994202 -10.297173 -12.024704 1.950070 28.868485 10.049728 4.064953 53.878648 5.928096 11.448707 -11.623766 19.131645 -6.204272 12.706613 12.256986 -5.462480 
6.364126 -87.159088 93.933411 -178.125418 2.091841 86.073275 5.506812 1.853678 5.872540 -1.322279 -5.030936 2.314510 1.119978 9.127852 -13.137128 nan nan nan -2.851043 -1.456642 5.814046 2.110790 0.441625 -0.205070 2.644907 -4.092805 -8.120353 nan nan nan -1.007305 2.657971 7.722761 2.481042 -3.514741 9.412971 2.869332 -1.310182 -4.472953 -3.592109 2.781856 -2.793618 2.777753 -1.859706 -7.251693 -26.849643 -6.122442 3.576876 -60.806047 -8.223985 13.825012 8.644717 -21.049196 6.234214 -10.460315 -12.214699 1.910377 28.642113 10.176245 4.157774 54.129466 5.958362 11.393908 -11.642591 19.141982 -6.069360 12.552553 12.262741 -5.698772 
6.379182 -87.139091 93.895294 -178.185105 2.022918 85.899634 5.492548 1.929376 6.200554 -1.456639 -4.889553 2.146418 1.136381 9.252023 -13.507644 nan nan nan -2.810275 -1.145464 6.048092 2.135033 0.689895 0.003584 2.563272 -4.355013 -9.372942 nan nan nan -1.241940 2.761341 7.731245 2.467363 -3.376168 9.671555 2.992057 -1.425282 -4.392782 -3.389613 2.902825 -3.212844 2.901146 -2.097035 -6.924499 -26.420245 -5.932143 3.388368 -61.280222 -8.520857 13.908501 8.882912 -20.783143 6.922029 -10.846505 -12.571041 1.953136 28.531232 9.993785 3.797185 54.425871 6.131278 11.470625 -11.726985 18.902900 -5.784260 12.675650 12.633225 -5.952319 
